# Blender v2.77 (sub 0) OBJ File: ''
# www.blender.org
mtllib Building.mtl
o Cube
v 0.449975 -0.971032 -1.372039
v 1.375019 -0.971032 0.401176
v -0.398196 -0.971032 1.326220
v -1.323241 -0.971032 -0.446995
v 0.449975 1.028968 -1.372039
v 1.375019 1.028968 0.401177
v -0.398197 1.028968 1.326220
v -1.323241 1.028968 -0.446995
vt 0.9871 -0.0115
vt -0.0129 0.9885
vt 0.9871 0.9885
vt -0.0129 0.9885
vt 0.9871 -0.0115
vt 0.9871 0.9885
vt 0.9885 1.0145
vt -0.0115 0.0145
vt 0.9885 0.0145
vt 0.9871 1.0145
vt -0.0129 0.0145
vt 0.9871 0.0145
vt 0.9885 1.0145
vt 1.9885 0.0145
vt 0.9885 0.0145
vt 0.9871 -0.9855
vt -0.0129 0.0145
vt 0.9871 0.0145
vt -0.0129 -0.0115
vt -0.0129 -0.0115
vt -0.0115 1.0145
vt -0.0129 1.0145
vt 1.9885 1.0145
vt -0.0129 -0.9855
vn 0.0000 -1.0000 -0.0000
vn 0.0000 1.0000 -0.0000
vn 0.8866 -0.0000 -0.4625
vn 0.4625 -0.0000 0.8866
vn -0.8866 -0.0000 0.4625
vn -0.4625 0.0000 -0.8866
usemtl Material.001
s off
f 2/1/1 4/2/1 1/3/1
f 8/4/2 6/5/2 5/6/2
f 5/7/3 2/8/3 1/9/3
f 6/10/4 3/11/4 2/12/4
f 7/13/5 4/14/5 3/15/5
f 1/16/6 8/17/6 5/18/6
f 2/1/1 3/19/1 4/2/1
f 8/4/2 7/20/2 6/5/2
f 5/7/3 6/21/3 2/8/3
f 6/10/4 7/22/4 3/11/4
f 7/13/5 8/23/5 4/14/5
f 1/16/6 4/24/6 8/17/6
