# Blender v2.78 (sub 0) OBJ File: ''
# www.blender.org
mtllib gold.mtl
o Cube
v 1.000000 -1.000000 -1.000000
v 1.000000 -1.000000 1.000000
v -1.000000 -1.000000 1.000000
v -1.000000 -1.000000 -1.000000
v 1.000000 1.000000 -0.999999
v 0.999999 1.000000 1.000001
v -1.000000 1.000000 1.000000
v -1.000000 1.000000 -1.000000
vt 0.0001 0.9999
vt 0.6728 0.0001
vt 0.6728 0.9999
vt 0.9999 0.9999
vt 0.0001 0.0001
vt 0.9999 0.0001
vt 0.6728 0.9999
vt 0.0001 0.0001
vt 0.6728 0.0001
vt 0.0001 0.9999
vt 0.6728 0.0001
vt 0.6728 0.9999
vt 0.6728 0.9999
vt 0.0001 0.0001
vt 0.6728 0.0001
vt 0.0001 0.0001
vt 0.0001 0.9999
vt 0.0001 0.9999
vt 0.0001 0.9999
vt 0.0000 0.0000
vt 0.0000 0.0000
vt 0.0000 0.0000
vt 0.0000 0.0000
vn -0.5773 0.5773 -0.5773
vn 0.5773 0.5773 0.5773
vn 0.5773 0.5773 -0.5773
vn 0.5773 -0.5773 0.5773
vn 0.5773 -0.5773 -0.5773
vn -0.5773 -0.5773 0.5773
vn -0.5773 -0.5773 -0.5773
vn -0.5773 0.5773 0.5773
usemtl Material.001
s 1
f 8/1/1 6/2/2 5/3/3
f 5/4/3 2/5/4 1/6/5
f 6/7/2 3/8/6 2/9/4
f 3/10/6 8/11/1 4/12/7
f 1/13/5 8/14/1 5/15/3
f 8/1/1 7/16/8 6/2/2
f 5/4/3 6/17/2 2/5/4
f 6/7/2 7/18/8 3/8/6
f 3/10/6 7/16/8 8/11/1
f 1/13/5 4/19/7 8/14/1
usemtl Material.001_NONE
f 2/20/4 4/21/7 1/22/5
f 2/20/4 3/23/6 4/21/7
